<svg xmlns="http://www.w3.org/2000/svg" xmlns:xlink="http://www.w3.org/1999/xlink" width="89" height="92" viewBox="0 0 89 92">
  <defs>
    <linearGradient id="linear-gradient" y1="0.446" x2="1.049" y2="0.46" gradientUnits="objectBoundingBox">
      <stop offset="0" stop-color="#81a4b8"/>
      <stop offset="0.544" stop-color="#fafcfd"/>
      <stop offset="1" stop-color="#fff"/>
      <stop offset="1" stop-color="#3b4e5f"/>
      <stop offset="1"/>
    </linearGradient>
    <filter id="Rectangle_179" x="-0.559" y="-0.533" width="90.119" height="93.067" filterUnits="userSpaceOnUse">
      <feOffset dy="6" input="SourceAlpha"/>
      <feGaussianBlur stdDeviation="4" result="blur"/>
      <feFlood flood-opacity="0.161"/>
      <feComposite operator="in" in2="blur"/>
      <feComposite in="SourceGraphic"/>
    </filter>
    <filter id="Subtraction_26" x="0" y="0" width="89" height="92" filterUnits="userSpaceOnUse">
      <feOffset dy="6" input="SourceAlpha"/>
      <feGaussianBlur stdDeviation="4" result="blur-2"/>
      <feFlood flood-opacity="0.161"/>
      <feComposite operator="in" in2="blur-2"/>
      <feComposite in="SourceGraphic"/>
    </filter>
  </defs>
  <g id="Component_21_11" data-name="Component 21 – 11" transform="translate(12 6)" style="isolation: isolate">
    <g transform="matrix(1, 0, 0, 1, -12, -6)" filter="url(#Subtraction_26)">
      <path id="Subtraction_26-2" data-name="Subtraction 26" d="M32.357,68H32.3a5.568,5.568,0,0,1-2.771-.814c-.8-.5-1.61-1-2.408-1.465-1.669-.978-3.39-1.915-5.116-2.785l-5.6-3.047-.031-.017-3.34-1.818-.193-.1-6.5-3.541-.719-.392a24.309,24.309,0,0,0-2.216-1.206l-.3-.14h0l-.027-.012h0a4.983,4.983,0,0,1-1.048-.595A4.848,4.848,0,0,1,.81,50.657,6.026,6.026,0,0,1,.17,48.42,10.111,10.111,0,0,1,.1,47.263c0-.475.033-.867.057-1.153l.009-.1c.056-.667.085-1.362.085-2.065,0-.718-.029-1.466-.089-2.223-.013-1.691-.025-3.4-.035-4.838v-.173Q.115,35.114.1,33.522l0-.6-.03-4.232L.04,24.46C.025,22.655.012,20.821,0,18.854a5.724,5.724,0,0,1,1.236-3.086,7.027,7.027,0,0,1,1.351-1.222,8.615,8.615,0,0,1,1.836-1l.021-.009c.026-.011.026-.011.537-.29l.005,0c.646-.353,2.16-1.179,5.709-3.11l2.222-1.209.156-.085.216-.118.062-.034L15.3,7.628l2.6-1.413,1.423-.772,1.04-.567,3.365-1.833.222-.12.542-.295.692-.375c.38-.207.75-.417,1.1-.625.181-.106.308-.182.442-.263l.022-.013.005,0,.383-.229c.483-.284.846-.489,1.066-.61a2.978,2.978,0,0,1,.533-.3,1.864,1.864,0,0,1,.746-.2l.1,0a.806.806,0,0,1,.436.1.8.8,0,0,1,.32.407,1.142,1.142,0,0,1,.086.437.953.953,0,0,1,0,.1v.008c-.017.193-.026,5.064-.026,14.478v.223c0,9.411.009,23.279.026,41.217l-6.683-3.847V10.8l-.382.211-.034.021-.147.082-.43.241-.208.117-.48.269-.118.068-.283.16,0,0-.313.177-.268.148-.108.059-.015.01-.058.034-.01.005-.015.007-.046.026-.008,0-.013.008-.013.008-.04.022c-.2.114-.412.231-.616.347l-.01.005-.016.008-.117.067-.147.082h0l-.165.092-.015.008-.2.111-.071.041c-.141.081-.3.168-.448.253v.054l-.016,4.7L18.909,20.6,18.9,22.945l-.011,3.209c0,.735,0,1.489-.007,2.2v.9c0,.38,0,.767,0,1.141v.185c0,.289,0,.577,0,.861v.142l0,.774-.013,4.59-.01,2.492c-.01,3.411-.023,7.073-.034,10.015v.014l0,.829-6.891-3.967.036-9.131V36.134c0-.19,0-.369,0-.553v-.592l0-1.367.006-1.37V32.24l0-.546c0-.714.006-1.425.009-2.115v-.018c.006-1.419.013-3.186.017-4.858l0-.553.01-2.376c0-.177,0-.358,0-.532v-.057c0-.131,0-.247,0-.355l0-.953.013-2.852c-.2.107-.414.22-.732.391l-.191.1-.212.114-.426.229-.139.076-.925.5-.2.108L7.261,19.6l-.02.012v27.95L11.576,50l8.644,4.878,7.14,4.028,1.534.865,3.329,1.878.024-.014,1.887-1.076.05-.029c2.1-1.194,3.971-2.264,5.7-3.251l2.508-1.427L44.9,54.429l1.209-.685,2.568-1.466,3.419-1.95.7-.4,1.191-.679,1.181-.674.067-.038,2.335-1.331V36.754l-16,.116V52.757l-7.05,4.058c.009-13,.013-23.525.013-32.175V24.1c0-14.96-.015-22.69-.045-22.977l0-.014a1.129,1.129,0,0,1-.014-.166A.75.75,0,0,1,34.6.511a.873.873,0,0,1,.423-.3h0a1.153,1.153,0,0,1,.413-.074,1.387,1.387,0,0,1,.441.074c.171.089.434.228.746.407s.51.3.61.363a10.714,10.714,0,0,0,1.127.608c.14.067.261.126.364.181.952.512,3.131,1.7,6.143,3.353l3.213,1.753L50,7.918,50.148,8l.721.393.227.124.5.272.213.116.488.267.374.2.091.049,2.023,1.1,1.264.69c1.782,1.045,3.57,2.022,5.314,2.9l.168.084a5.751,5.751,0,0,1,1.96,1.321,6.815,6.815,0,0,1,1.466,4.013c.03.315.045.632.044.944a8.84,8.84,0,0,1-.053,1c-.2,1.787-.3,4.893-.3,9.232,0,5.971.2,12.712.306,14.393v0h0c.009.127.029.423.029.832,0,.288-.01.578-.029.862a10.638,10.638,0,0,1-.44,2.545,7.049,7.049,0,0,1-2.962,3.478l-1.669.915-1.656.908-1.781.976-1.783.976-1.881,1.03-1.748.962L48.378,60.05c-.938.512-1.891,1.035-2.813,1.54l-.137.075-.018.01-.886.486-.6.33-.013.008-.126.067-.7.386-.141.077c-.873.479-1.775.974-2.679,1.469l-.855.469-.139.077-1.14.623L37.52,66a13.253,13.253,0,0,1-2.133,1.169A7.264,7.264,0,0,1,32.357,68Zm9.1-57.318h0V10.7l-.06,9.726-.022,3.519-.008,1.186,0,.366-.028,4.674,3.074-.042,1.091-.015h.112l4.352-.065.363,0,6.4-.092h.017l1.035-.015h.052V19.726L55,18.168l-.056-.031-.484-.268L52.6,16.841l-.411-.227-1.673-.925-.6-.33-.092-.051-.048-.026-2.441-1.349-.956-.526-1.373-.758-1.717-.95-1.839-1.015Z" transform="translate(12 6)" fill="url(#linear-gradient)"/>
    </g>
  </g>
</svg>
